<svg id="visual" viewBox="0 0 960 300" width="960" height="300" xmlns="http://www.w3.org/2000/svg" xmlns:xlink="http://www.w3.org/1999/xlink" version="1.1"><rect x="0" y="0" width="960" height="300" fill="#01182a"></rect><path d="M0 201L22.8 198.8C45.7 196.7 91.3 192.3 137 188.7C182.7 185 228.3 182 274 181.3C319.7 180.7 365.3 182.3 411.2 188.5C457 194.7 503 205.3 548.8 211C594.7 216.7 640.3 217.3 686 212.3C731.7 207.3 777.3 196.7 823 197.2C868.7 197.7 914.3 209.3 937.2 215.2L960 221L960 301L937.2 301C914.3 301 868.7 301 823 301C777.3 301 731.7 301 686 301C640.3 301 594.7 301 548.8 301C503 301 457 301 411.2 301C365.3 301 319.7 301 274 301C228.3 301 182.7 301 137 301C91.3 301 45.7 301 22.8 301L0 301Z" fill="#fa7268"></path><path d="M0 239L22.8 237.8C45.7 236.7 91.3 234.3 137 231.3C182.7 228.3 228.3 224.7 274 225.2C319.7 225.7 365.3 230.3 411.2 228.7C457 227 503 219 548.8 213.5C594.7 208 640.3 205 686 202.8C731.7 200.7 777.3 199.3 823 201.2C868.7 203 914.3 208 937.2 210.5L960 213L960 301L937.2 301C914.3 301 868.7 301 823 301C777.3 301 731.7 301 686 301C640.3 301 594.7 301 548.8 301C503 301 457 301 411.2 301C365.3 301 319.7 301 274 301C228.3 301 182.7 301 137 301C91.3 301 45.7 301 22.8 301L0 301Z" fill="#ef5f67"></path><path d="M0 223L22.8 224.2C45.7 225.3 91.3 227.7 137 227.2C182.7 226.7 228.3 223.3 274 222C319.7 220.7 365.3 221.3 411.2 226.8C457 232.3 503 242.7 548.8 243.8C594.7 245 640.3 237 686 232.3C731.7 227.7 777.3 226.3 823 225.5C868.7 224.7 914.3 224.3 937.2 224.2L960 224L960 301L937.2 301C914.3 301 868.7 301 823 301C777.3 301 731.7 301 686 301C640.3 301 594.7 301 548.8 301C503 301 457 301 411.2 301C365.3 301 319.7 301 274 301C228.3 301 182.7 301 137 301C91.3 301 45.7 301 22.8 301L0 301Z" fill="#e34c67"></path><path d="M0 258L22.8 255C45.7 252 91.3 246 137 245.3C182.7 244.7 228.3 249.3 274 249.8C319.7 250.3 365.3 246.7 411.2 246.3C457 246 503 249 548.8 252.3C594.7 255.7 640.3 259.3 686 262.5C731.7 265.7 777.3 268.3 823 268.5C868.7 268.7 914.3 266.3 937.2 265.2L960 264L960 301L937.2 301C914.3 301 868.7 301 823 301C777.3 301 731.7 301 686 301C640.3 301 594.7 301 548.8 301C503 301 457 301 411.2 301C365.3 301 319.7 301 274 301C228.3 301 182.7 301 137 301C91.3 301 45.7 301 22.8 301L0 301Z" fill="#d53867"></path><path d="M0 267L22.8 266.8C45.7 266.7 91.3 266.3 137 267.2C182.7 268 228.3 270 274 272C319.7 274 365.3 276 411.2 274.7C457 273.3 503 268.7 548.8 267.7C594.7 266.7 640.3 269.3 686 271C731.7 272.7 777.3 273.3 823 272.3C868.7 271.3 914.3 268.7 937.2 267.3L960 266L960 301L937.2 301C914.3 301 868.7 301 823 301C777.3 301 731.7 301 686 301C640.3 301 594.7 301 548.8 301C503 301 457 301 411.2 301C365.3 301 319.7 301 274 301C228.3 301 182.7 301 137 301C91.3 301 45.7 301 22.8 301L0 301Z" fill="#c62368"></path></svg>