<svg id="visual" viewBox="0 0 900 675" width="900" height="675" xmlns="http://www.w3.org/2000/svg" xmlns:xlink="http://www.w3.org/1999/xlink" version="1.1"><rect x="0" y="0" width="900" height="675" fill="#01182a"></rect><path d="M0 504L21.5 498.7C43 493.3 86 482.7 128.8 479.7C171.7 476.7 214.3 481.3 257.2 480C300 478.7 343 471.3 385.8 462.2C428.7 453 471.3 442 514.2 438.2C557 434.3 600 437.7 642.8 440.7C685.7 443.7 728.3 446.3 771.2 452C814 457.7 857 466.3 878.5 470.7L900 475L900 676L878.5 676C857 676 814 676 771.2 676C728.3 676 685.7 676 642.8 676C600 676 557 676 514.2 676C471.3 676 428.7 676 385.8 676C343 676 300 676 257.2 676C214.3 676 171.7 676 128.8 676C86 676 43 676 21.5 676L0 676Z" fill="#fa7268"></path><path d="M0 502L21.5 500.7C43 499.3 86 496.7 128.8 493.3C171.7 490 214.3 486 257.2 491C300 496 343 510 385.8 506.3C428.7 502.7 471.3 481.3 514.2 472.3C557 463.3 600 466.7 642.8 469C685.7 471.3 728.3 472.7 771.2 472.7C814 472.7 857 471.3 878.5 470.7L900 470L900 676L878.5 676C857 676 814 676 771.2 676C728.3 676 685.7 676 642.8 676C600 676 557 676 514.2 676C471.3 676 428.7 676 385.8 676C343 676 300 676 257.2 676C214.3 676 171.7 676 128.8 676C86 676 43 676 21.5 676L0 676Z" fill="#ef5f67"></path><path d="M0 527L21.5 526.5C43 526 86 525 128.8 526.8C171.7 528.7 214.3 533.3 257.2 540.2C300 547 343 556 385.8 549.2C428.7 542.3 471.3 519.7 514.2 516.8C557 514 600 531 642.8 538.8C685.7 546.7 728.3 545.3 771.2 549.2C814 553 857 562 878.5 566.5L900 571L900 676L878.5 676C857 676 814 676 771.2 676C728.3 676 685.7 676 642.8 676C600 676 557 676 514.2 676C471.3 676 428.7 676 385.8 676C343 676 300 676 257.2 676C214.3 676 171.7 676 128.8 676C86 676 43 676 21.5 676L0 676Z" fill="#e34c67"></path><path d="M0 584L21.5 580.7C43 577.3 86 570.7 128.8 570.2C171.7 569.7 214.3 575.3 257.2 572.8C300 570.3 343 559.7 385.8 559.3C428.7 559 471.3 569 514.2 578.3C557 587.7 600 596.3 642.8 594.8C685.7 593.3 728.3 581.7 771.2 577.7C814 573.7 857 577.3 878.5 579.2L900 581L900 676L878.5 676C857 676 814 676 771.2 676C728.3 676 685.7 676 642.8 676C600 676 557 676 514.2 676C471.3 676 428.7 676 385.8 676C343 676 300 676 257.2 676C214.3 676 171.7 676 128.8 676C86 676 43 676 21.5 676L0 676Z" fill="#d53867"></path><path d="M0 621L21.5 620.8C43 620.7 86 620.3 128.8 620.7C171.7 621 214.3 622 257.2 619C300 616 343 609 385.8 611.2C428.7 613.3 471.3 624.7 514.2 627.2C557 629.7 600 623.3 642.8 624C685.7 624.7 728.3 632.3 771.2 635.8C814 639.3 857 638.7 878.5 638.3L900 638L900 676L878.5 676C857 676 814 676 771.2 676C728.3 676 685.7 676 642.8 676C600 676 557 676 514.2 676C471.3 676 428.7 676 385.8 676C343 676 300 676 257.2 676C214.3 676 171.7 676 128.8 676C86 676 43 676 21.5 676L0 676Z" fill="#c62368"></path></svg>